# xmcd
#
# Track frame offsets:
#	150
#	12749
#	29553
#	45285
#	57191
#	68275
#	84790
#	95885
#	107376
#	119990
#	133148
#	147855
#	160374
#
# Disc length: 2295 seconds
#
# Revision: 2
# Processed by: cddbd v1.5.2PL0 Copyright (c) Steve Scherf et al.
# Submitted via: EasyCDDAExtractor 11.9.9.666
#
DISCID=b008f50d
DTITLE=Miss Leslie - Honky Tonk Revival
DYEAR=2005
DGENRE=Country
TTITLE0=I'll Be Gone Tonight
TTITLE1=I Threw Your Picture Away
TTITLE2=Honky Tonk No More
TTITLE3=Stranger In Your Mind
TTITLE4=I'm Walking Slow
TTITLE5=Bobo's Boogie
TTITLE6=Turn Around
TTITLE7=Talk To Me Lonesome Heart
TTITLE8=I'll Sure Come A Long Way Down
TTITLE9=Future On Ice
TTITLE10=Heavy On The Lonesome
TTITLE11=Midnight Angel
TTITLE12=Honky Tonk Gal
EXTD=
EXTT0=
EXTT1=
EXTT2=
EXTT3=
EXTT4=
EXTT5=
EXTT6=
EXTT7=
EXTT8=
EXTT9=
EXTT10=
EXTT11=
EXTT12=
PLAYORDER=
